<?xml version="1.0" encoding="utf-8"?>
<!-- Generator: Adobe Illustrator 24.3.0, SVG Export Plug-In . SVG Version: 6.00 Build 0)  -->
<svg version="1.1" id="Layer_1" xmlns="http://www.w3.org/2000/svg" xmlns:xlink="http://www.w3.org/1999/xlink" x="0px" y="0px"
	 viewBox="0 0 96 96" style="enable-background:new 0 0 96 96;" xml:space="preserve">
<style type="text/css">
	.st0{fill:none;stroke:#000000;stroke-width:6;stroke-linejoin:round;stroke-miterlimit:20;}
</style>
<path d="M66,17c-7,0-12.9,4-18,12c-5.1-8-11-12-18-12c-10.5,0-19,8.5-19,19c0,13,22,30,37,45c15-15,37-32,37-45
	C85,25.5,76.5,17,66,17z"/>
<path class="st0" d="M66,17c-7,0-12.9,4-18,12c-5.1-8-11-12-18-12c-10.5,0-19,8.5-19,19c0,13,22,30,37,45c15-15,37-32,37-45
	C85,25.5,76.5,17,66,17z"/>
</svg>
